Coordinates
version=1
nRows=11
nColumns=36
inDegrees=yes

Units are S.I. units (second, meters, Newtons, ...)
If the header above contains a line with 'inDegrees', this indicates whether rotational values are in degrees (yes) or radians (no).

endheader
time	pelvis_tilt	pelvis_list	pelvis_rotation	pelvis_tx	pelvis_ty	pelvis_tz	hip_flexion_r	hip_adduction_r	hip_rotation_r	knee_angle_r	knee_angle_r_beta	ankle_angle_r	subtalar_angle_r	mtp_angle_r	hip_flexion_l	hip_adduction_l	hip_rotation_l	knee_angle_l	knee_angle_l_beta	ankle_angle_l	subtalar_angle_l	mtp_angle_l	lumbar_extension	lumbar_bending	lumbar_rotation	arm_flex_r	arm_add_r	arm_rot_r	elbow_flex_r	pro_sup_r	arm_flex_l	arm_add_l	arm_rot_l	elbow_flex_l	pro_sup_l
      3.36666670	     -3.32817786	     -0.61224671	      5.00384704	      0.42661425	      0.95955344	     -0.12820385	     19.68466817	      8.55703942	     11.08527745	     24.07428422	      0.42017552	      9.15534180	     -7.81105140	     -7.49993265	     37.18646358	     -6.40018147	     -9.33365432	     49.04394632	      0.85597834	     -3.83830758	    -20.07830620	     -7.49993265	     -9.53189313	     -5.69175860	      6.59007565	     54.24935739	      5.85709508	     68.15371354	    119.84568331	     85.56010538	     45.95598125	      8.69072718	     65.37816884	    125.58200819	     74.09126359
      3.38333330	     -3.00595973	     -0.57774638	      5.14290716	      0.43106039	      0.95738725	     -0.13207126	     18.68282263	      8.21567802	     10.48741757	     23.42383650	      0.40882307	      9.58746049	     -6.59166611	     -7.49993719	     35.83267494	     -6.18958208	     -9.11514869	     49.06592180	      0.85636189	     -4.21989278	    -20.92355445	     -7.49993719	     -9.10953125	     -5.30521214	      6.74436770	     54.46575821	      5.71615136	     67.84284454	    119.94856449	     85.00808998	     46.27736600	      8.89302289	     64.77159403	    125.18995084	     73.67920180
      3.40000000	     -2.97830126	     -0.51758510	      5.23401658	      0.43491134	      0.96051100	     -0.13486882	     17.81712118	      7.91008129	     10.03502594	     22.45072885	      0.39183914	      9.74454036	     -6.22603984	     -7.49993790	     34.60555571	     -5.79736330	     -8.92354645	     48.74997131	      0.85084751	     -3.41350863	    -20.87283836	     -7.49993790	     -8.46807405	     -5.00230396	      7.14055544	     54.21882618	      5.49600462	     67.70057610	    120.14410502	     85.05667049	     45.61324237	      8.98069404	     64.51199311	    125.27090212	     73.59899051
      3.41666670	     -2.51931597	     -0.64347920	      5.20762164	      0.43899463	      0.96128933	     -0.13890829	     16.50114283	      7.61855664	      9.48684637	     21.34621093	      0.37256166	     10.03091681	     -5.43390108	     -7.49994058	     32.79031851	     -5.53481381	     -8.69724147	     48.02082258	      0.83812146	     -2.36497147	    -20.70628315	     -7.49994058	     -8.11307118	     -4.34532006	      7.36005426	     54.33485607	      5.03763874	     67.63850145	    120.29821976	     84.84737301	     45.12931613	      9.46481244	     63.93057815	    124.58869615	     73.29602006
      3.43333330	     -2.49439214	     -0.84287799	      4.97104206	      0.43826737	      0.95921764	     -0.13766522	     15.99603534	      7.56875908	      9.22291778	     20.55975798	      0.35883547	     10.03525746	     -4.94532584	     -7.49994115	     31.74378120	     -5.53715216	     -8.52671070	     47.49669206	      0.82897366	     -1.91083874	    -20.56416647	     -7.49994115	     -7.44091376	     -3.64948668	      7.72656407	     54.14532008	      5.00513364	     67.82278460	    120.66269748	     84.93255431	     44.47603552	      9.81396460	     63.83827379	    124.65760382	     73.27913348
      3.45000000	     -2.20165936	     -1.03907173	      4.92928324	      0.44173331	      0.95748994	     -0.14095986	     15.13223449	      7.45302984	      8.91440410	     19.96594846	      0.34847154	     10.66840295	     -4.01978588	     -7.49994680	     30.26492026	     -5.42056671	     -8.50471426	     46.37018109	      0.80931233	     -0.44375233	    -19.50897485	     -7.49994680	     -6.78487137	     -2.86696818	      7.98578358	     54.18527998	      4.59020405	     67.76332663	    120.98023216	     84.03299450	     43.83845314	     10.15516619	     63.50018987	    124.64805911	     72.61607732
      3.46666670	     -2.04312403	     -0.94599745	      5.19982139	      0.45004946	      0.96183553	     -0.14156092	     14.06929607	      7.14490328	      8.45326851	     19.06448215	      0.33273798	     11.00740843	     -3.61702969	     -7.49994914	     28.52093541	     -5.09310858	     -8.84528301	     44.78979832	      0.78172945	      0.49967764	    -18.82174335	     -7.49994914	     -5.93082815	     -2.40564753	      8.05393826	     53.55850720	      4.41569812	     68.00282202	    121.16144512	     84.04934014	     42.87397010	     10.40347280	     64.12752113	    124.68386656	     72.48633347
      3.48333330	     -2.03333600	     -0.96512449	      5.03265795	      0.44951238	      0.95939578	     -0.14166531	     13.64160813	      7.18315401	      8.63197779	     18.62188045	      0.32501313	     11.50607851	     -3.46134012	     -7.49994950	     27.52113919	     -4.95399597	     -8.83807683	     43.62760886	      0.76144542	      1.34320476	    -18.57690137	     -7.49994950	     -5.13991299	     -1.93584447	      8.27487109	     53.18354668	      4.35515227	     68.26344126	    121.32592752	     84.17129966	     42.08587284	     10.55657663	     64.60056057	    125.01117274	     72.54649112
      3.50000000	     -1.87975703	     -0.81908823	      5.14903833	      0.45339573	      0.95781650	     -0.14424875	     12.94866657	      6.98060207	      8.31460647	     18.26216344	      0.31873488	     12.50973321	     -3.13962275	     -7.49995194	     26.48497605	     -4.78008357	     -9.25214337	     42.62160579	      0.74388735	      2.62369484	    -17.50029777	     -7.49995194	     -4.61088250	     -1.69310264	      8.32834295	     52.85170213	      4.38013825	     68.77271248	    121.70968499	     84.07646533	     41.68206023	     10.60749649	     65.34572771	    125.67181120	     72.41883799
      3.51666670	     -2.08239125	     -0.64865313	      5.31824622	      0.45375900	      0.95306277	     -0.14463394	     13.24775358	      6.79435666	      8.14869262	     18.71596043	      0.32665513	     13.41110952	     -3.23643219	     -7.49995498	     26.17339071	     -4.43278737	     -9.39920219	     41.96873259	      0.73249257	      3.96068294	    -17.14569885	     -7.49995498	     -3.89097684	     -1.50757682	      8.17808363	     52.61452828	      4.49346251	     68.93618600	    122.06015781	     83.54206163	     41.72041047	     10.58988947	     65.49592315	    125.85537483	     72.22101356
      3.53333330	     -2.20866895	     -0.46637595	      5.66757347	      0.45302481	      0.95628971	     -0.14434950	     13.39674246	      6.58974620	      7.89430835	     19.03972515	      0.33230589	     14.01560396	     -3.74684174	     -7.49995739	     25.89960616	     -4.10846726	     -9.53636160	     41.23423788	      0.71967322	      4.68341267	    -16.97878150	     -7.49995739	     -3.47242960	     -1.35876742	      8.00285890	     52.45761851	      4.50105892	     69.14828018	    121.87875837	     83.13898918	     41.70487760	     10.49546407	     65.79368291	    125.91199481	     71.95222303
